<svg width="20" height="19" viewBox="0 0 20 19" fill="none" xmlns="http://www.w3.org/2000/svg">
<path d="M15.4182 15.1C14.3738 15.1 13.5364 15.9374 13.5364 16.9818C13.5364 17.4809 13.7346 17.9596 14.0875 18.3125C14.4405 18.6654 14.9191 18.8637 15.4182 18.8637C15.9173 18.8637 16.3959 18.6654 16.7488 18.3125C17.1017 17.9596 17.3 17.4809 17.3 16.9818C17.3 16.4827 17.1017 16.0041 16.7488 15.6512C16.3959 15.2983 15.9173 15.1 15.4182 15.1ZM0.363647 0.0454712V1.92729H2.24547L5.63274 9.06879L4.3531 11.374C4.21197 11.6375 4.12728 11.948 4.12728 12.2773C4.12728 12.7764 4.32555 13.255 4.67846 13.6079C5.03136 13.9608 5.51001 14.1591 6.0091 14.1591H17.3V12.2773H6.40428C6.3419 12.2773 6.28207 12.2525 6.23795 12.2084C6.19384 12.1643 6.16906 12.1044 6.16906 12.0421C6.16906 11.995 6.17847 11.9574 6.19728 11.9292L7.0441 10.3955H14.0539C14.7596 10.3955 15.3806 10.0003 15.7005 9.42633L19.0689 3.33865C19.1348 3.18811 19.1818 3.02815 19.1818 2.8682C19.1818 2.61865 19.0827 2.37933 18.9062 2.20288C18.7298 2.02642 18.4905 1.92729 18.2409 1.92729H4.32487L3.44042 0.0454712M6.0091 15.1C4.96469 15.1 4.12728 15.9374 4.12728 16.9818C4.12728 17.4809 4.32555 17.9596 4.67846 18.3125C5.03136 18.6654 5.51001 18.8637 6.0091 18.8637C6.50819 18.8637 6.98684 18.6654 7.33975 18.3125C7.69266 17.9596 7.89092 17.4809 7.89092 16.9818C7.89092 16.4827 7.69266 16.0041 7.33975 15.6512C6.98684 15.2983 6.50819 15.1 6.0091 15.1Z" fill="black"/>
</svg>
