<svg width="96" height="96" viewBox="0 0 96 96" fill="none" xmlns="http://www.w3.org/2000/svg">
<rect x="0.950195" y="35.7292" width="69.1966" height="69.1966" rx="34.5983" transform="rotate(-30.9154 0.950195 35.7292)" fill="white"/>
<path fill-rule="evenodd" clip-rule="evenodd" d="M36.5354 54.7467C36.1673 54.132 36.3672 53.3352 36.9819 52.9671L55.6674 41.7772L50.8166 40.7494C50.1156 40.6008 49.6677 39.9122 49.8163 39.2112C49.9648 38.5102 50.6535 38.0623 51.3545 38.2109L59.4375 39.9236C59.7904 39.9984 60.0963 40.2167 60.2816 40.5262C60.467 40.8358 60.5151 41.2085 60.4144 41.5549L58.1085 49.4891C57.9085 50.1772 57.1886 50.5729 56.5005 50.3729C55.8124 50.1729 55.4167 49.453 55.6167 48.7649L57.0006 44.0034L38.3151 55.1933C37.7004 55.5614 36.9036 55.3615 36.5354 54.7467Z" fill="#646464"/>
</svg>
