<svg width="64" height="64" viewBox="0 0 64 64" fill="none" xmlns="http://www.w3.org/2000/svg">
<rect width="64" height="64" rx="11" fill="#F3F4F8"/>
<path d="M32 21V43M26.5 37.8333L28.1113 39.0418C30.2591 40.6527 33.7413 40.6527 35.8891 39.0418C38.037 37.4309 38.037 34.8191 35.8891 33.2082C34.8151 32.4026 33.4075 31.9999 31.9998 32C30.6708 32.0001 29.342 31.5974 28.328 30.7919C26.3002 29.181 26.3002 26.5691 28.328 24.9582C30.3559 23.3473 33.6436 23.3473 35.6715 24.9582L36.4321 25.5625M48.5 32C48.5 41.1127 41.1127 48.5 32 48.5C22.8873 48.5 15.5 41.1127 15.5 32C15.5 22.8873 22.8873 15.5 32 15.5C41.1127 15.5 48.5 22.8873 48.5 32Z" stroke="black" stroke-width="1.5" stroke-linecap="round" stroke-linejoin="round"/>
</svg>
