<svg width="35" height="16" viewBox="0 0 35 16" fill="none" xmlns="http://www.w3.org/2000/svg">
<path d="M0.820312 8C0.820312 3.85786 4.17818 0.5 8.32031 0.5H27.5003C31.6425 0.5 35.0003 3.85786 35.0003 8C35.0003 12.1421 31.6424 15.5 27.5003 15.5H8.32031C4.17817 15.5 0.820312 12.1421 0.820312 8Z" fill="url(#paint0_linear_8_14)"/>
<path d="M13.6227 4.08182V11.5H12.594L8.82337 6.05952H8.75455V11.5H7.6353V4.08182H8.67124L12.4455 9.52955H12.5143V4.08182H13.6227ZM17.7664 11.6123C17.2182 11.6123 16.7461 11.4952 16.3501 11.2609C15.9565 11.0243 15.6522 10.6923 15.4373 10.2648C15.2248 9.83501 15.1186 9.33153 15.1186 8.7544C15.1186 8.18452 15.2248 7.68224 15.4373 7.24759C15.6522 6.81293 15.9517 6.47365 16.3356 6.22976C16.722 5.98587 17.1735 5.86392 17.6903 5.86392C18.0042 5.86392 18.3085 5.91584 18.6031 6.01967C18.8977 6.12351 19.1621 6.28651 19.3963 6.50866C19.6306 6.73082 19.8153 7.01939 19.9505 7.37436C20.0857 7.72692 20.1534 8.15554 20.1534 8.66023V9.04418H15.7307V8.23281H19.0921C19.0921 7.94787 19.0341 7.69553 18.9182 7.47578C18.8023 7.25362 18.6393 7.07855 18.4292 6.95057C18.2215 6.82259 17.9776 6.75859 17.6975 6.75859C17.3933 6.75859 17.1276 6.83345 16.9007 6.98317C16.6761 7.13047 16.5022 7.32365 16.3791 7.56271C16.2583 7.79936 16.198 8.05653 16.198 8.33423V8.96811C16.198 9.33999 16.2632 9.65632 16.3936 9.91712C16.5264 10.1779 16.7111 10.3771 16.9477 10.5148C17.1844 10.65 17.4609 10.7176 17.7772 10.7176C17.9825 10.7176 18.1696 10.6886 18.3387 10.6307C18.5077 10.5703 18.6538 10.481 18.7769 10.3626C18.9001 10.2443 18.9943 10.0982 19.0595 9.92436L20.0845 10.1091C20.0024 10.4109 19.8551 10.6754 19.6426 10.9023C19.4325 11.1269 19.1681 11.302 18.8494 11.4276C18.533 11.5507 18.172 11.6123 17.7664 11.6123ZM22.7512 11.5L21.114 5.93636H22.2333L23.3235 10.0222H23.3779L24.4718 5.93636H25.591L26.6776 10.004H26.732L27.815 5.93636H28.9343L27.3007 11.5H26.1959L25.0658 7.48303H24.9825L23.8524 11.5H22.7512Z" fill="white"/>
<defs>
<linearGradient id="paint0_linear_8_14" x1="0.820312" y1="0.5" x2="35.2466" y2="14.9117" gradientUnits="userSpaceOnUse">
<stop offset="0.0052" stop-color="#FF5B37"/>
<stop offset="1" stop-color="#AB0052"/>
</linearGradient>
</defs>
</svg>
