<svg width="69" height="69" viewBox="0 0 69 69" fill="none" xmlns="http://www.w3.org/2000/svg">
<rect x="0.790161" y="0.860107" width="68.1399" height="68.1399" rx="17.8589" fill="black"/>
<path d="M42.0616 42.1316C40.7294 42.1316 39.6611 43.1998 39.6611 44.5321C39.6611 45.1688 39.914 45.7793 40.3642 46.2295C40.8144 46.6797 41.425 46.9326 42.0616 46.9326C42.6983 46.9326 43.3089 46.6797 43.7591 46.2295C44.2092 45.7793 44.4622 45.1688 44.4622 44.5321C44.4622 43.8954 44.2092 43.2849 43.7591 42.8347C43.3089 42.3845 42.6983 42.1316 42.0616 42.1316ZM22.8575 22.9275V25.328H25.2581L29.579 34.4379L27.9466 37.3786C27.7666 37.7146 27.6586 38.1107 27.6586 38.5308C27.6586 39.1675 27.9115 39.7781 28.3617 40.2282C28.8118 40.6784 29.4224 40.9313 30.0591 40.9313H44.4622V38.5308H30.5632C30.4836 38.5308 30.4073 38.4992 30.351 38.4429C30.2947 38.3867 30.2631 38.3103 30.2631 38.2308C30.2631 38.1707 30.2751 38.1227 30.2991 38.0867L31.3794 36.1303H40.3213C41.2215 36.1303 42.0136 35.6262 42.4217 34.894L46.7186 27.1284C46.8027 26.9363 46.8627 26.7323 46.8627 26.5283C46.8627 26.2099 46.7362 25.9046 46.5111 25.6795C46.286 25.4545 45.9807 25.328 45.6624 25.328H27.9106L26.7824 22.9275M30.0591 42.1316C28.7268 42.1316 27.6586 43.1998 27.6586 44.5321C27.6586 45.1688 27.9115 45.7793 28.3617 46.2295C28.8118 46.6797 29.4224 46.9326 30.0591 46.9326C30.6957 46.9326 31.3063 46.6797 31.7565 46.2295C32.2067 45.7793 32.4596 45.1688 32.4596 44.5321C32.4596 43.8954 32.2067 43.2849 31.7565 42.8347C31.3063 42.3845 30.6957 42.1316 30.0591 42.1316Z" fill="white"/>
</svg>
